<svg width="1927" height="576" viewBox="0 0 1927 576" fill="none" xmlns="http://www.w3.org/2000/svg">
<g clip-path="url(#clip0_16_2)">
<path d="M0.000488281 575.781V292.275C0.000488281 292.275 1644.08 16.8698 1741.59 1.29781C1839.09 -14.2742 1923.01 115.269 1923.01 115.269L1926.64 575.781H0.000488281Z" fill="#0157C8"/>
<mask id="mask0_16_2" style="mask-type:luminance" maskUnits="userSpaceOnUse" x="0" y="-1" width="1927" height="577">
<path d="M0.000488281 575.781V292.275C0.000488281 292.275 1644.08 16.8698 1741.59 1.29781C1839.09 -14.2742 1923.01 115.269 1923.01 115.269L1926.64 575.781H0.000488281Z" fill="white"/>
</mask>
<g mask="url(#mask0_16_2)">
<path d="M-58.9238 301.513L-37.4293 308.235C-16.011 314.565 26.5409 328.705 70.5571 341.543C113.056 354.675 156.022 368.735 192.553 350.428C229.915 331.96 261.08 283.116 302.706 291.018C344.998 299.403 398.576 364.373 439.305 367.662C480.172 370.924 508.36 310.434 547.416 297.749C584.816 285.386 631.736 319.051 670.423 311.837C709.686 303.899 740.992 255.028 782.618 262.931C824.634 271.369 877.108 336.554 923.281 360.483C967.822 384.119 1004.68 366.767 1040.2 343.257C1076.67 320.175 1111.65 290.964 1143.22 247.135C1175.2 203.225 1204.49 142.521 1243.18 135.306C1281.75 127.503 1330.69 173.002 1369.26 165.199C1408.91 157.796 1437.65 97.1991 1477.37 95.2856C1517.56 92.8721 1569.23 148.026 1613.97 171.929C1658.84 195.806 1697.33 188.324 1737.35 180.547C1775.7 173.091 1814.61 165.529 1851.19 147.516C1888.55 129.763 1923.67 100.524 1941.02 86.6586L1958.29 72.4007L1927.76 -84.6597L-58.9238 301.513Z" fill="url(#paint0_linear_16_2)"/>
</g>
</g>
<defs>
<linearGradient id="paint0_linear_16_2" x1="924.928" y1="-407.106" x2="1071.12" y2="353.053" gradientUnits="userSpaceOnUse">
<stop stop-color="#0157C8"/>
<stop offset="1" stop-color="#1369DA"/>
</linearGradient>
<clipPath id="clip0_16_2">
<rect width="1926.64" height="575.781" fill="white"/>
</clipPath>
</defs>
</svg>
